<svg xmlns="http://www.w3.org/2000/svg" xmlns:xlink="http://www.w3.org/1999/xlink" width="500" zoomAndPan="magnify" viewBox="0 0 375 374.999991" height="500" preserveAspectRatio="xMidYMid meet" version="1.0"><defs><clipPath id="53c5ae7e4a"><path d="M 15.90625 16.496094 L 359.25 16.496094 L 359.25 358.503906 L 15.90625 358.503906 Z M 15.90625 16.496094 " clip-rule="nonzero"/></clipPath><clipPath id="3fde32faac"><path d="M 186.910156 16.496094 L 188.089844 16.496094 C 282.535156 16.496094 359.09375 93.058594 359.09375 187.5 C 359.09375 281.941406 282.535156 358.503906 188.089844 358.503906 L 186.910156 358.503906 C 92.464844 358.503906 15.90625 281.941406 15.90625 187.5 C 15.90625 93.058594 92.464844 16.496094 186.910156 16.496094 Z M 186.910156 16.496094 " clip-rule="nonzero"/></clipPath><clipPath id="f97ff7f05e"><path d="M 57 104 L 317.957031 104 L 317.957031 276.199219 L 57 276.199219 Z M 57 104 " clip-rule="nonzero"/></clipPath></defs><g clip-path="url(#53c5ae7e4a)"><g clip-path="url(#3fde32faac)"><path fill="#ff3131" d="M 15.90625 16.496094 L 359.25 16.496094 L 359.25 358.503906 L 15.90625 358.503906 Z M 15.90625 16.496094 " fill-opacity="1" fill-rule="nonzero"/></g></g><g clip-path="url(#f97ff7f05e)"><path fill="#ffffff" d="M 240.621094 170.929688 C 237.59375 178.984375 228.023438 184.800781 208.578125 184.800781 C 184.328125 184.800781 164.671875 175.761719 164.671875 164.609375 C 164.671875 153.457031 184.328125 144.417969 208.578125 144.417969 C 226.328125 144.417969 235.851562 149.265625 239.679688 156.234375 C 260.035156 155.253906 278.078125 152.816406 291.671875 149.414062 C 307.84375 145.367188 317.722656 139.953125 317.722656 134.007812 C 317.722656 127.546875 304.660156 120.730469 285.914062 116.589844 L 285.902344 116.570312 C 272.996094 97.320312 239.84375 98.492188 184.167969 143.863281 C 90.734375 67.71875 60.714844 116.058594 83.414062 176.507812 C 83.445312 176.605469 83.484375 176.710938 83.523438 176.808594 C 67.257812 180.761719 57.300781 186.125 57.273438 192.09375 C 57.234375 200.074219 75.003906 207.199219 101.914062 211.402344 C 113.140625 213.160156 125.957031 214.410156 139.738281 215 C 142.117188 208.597656 147.734375 204.097656 154.289062 204.097656 L 211.511719 204.097656 L 211.511719 211.78125 L 157.488281 211.78125 L 157.488281 217.976562 L 211.511719 217.976562 L 211.511719 226.820312 L 157.488281 226.820312 L 157.488281 233.019531 L 211.511719 233.019531 L 211.511719 240.78125 L 154.289062 240.78125 C 147.671875 240.78125 142.011719 236.199219 139.675781 229.703125 L 139.671875 229.703125 C 131.171875 229.378906 122.941406 228.855469 115.074219 228.160156 C 132.554688 247.886719 155.722656 265.367188 184.167969 276.230469 C 241.160156 254.460938 276.976562 206.152344 288.28125 166.347656 C 274.183594 168.589844 258.035156 170.183594 240.625 170.929688 L 240.621094 170.929688 " fill-opacity="1" fill-rule="nonzero"/></g></svg>