<svg width="500" height="500" viewBox="0 0 500 500" fill="none" xmlns="http://www.w3.org/2000/svg">
<mask id="mask0_9_42" style="mask-type:luminance" maskUnits="userSpaceOnUse" x="88" y="128" width="326" height="118">
<path d="M88 128H413.333V245.333H88V128Z" fill="white"/>
</mask>
<g mask="url(#mask0_9_42)">
<mask id="mask1_9_42" style="mask-type:luminance" maskUnits="userSpaceOnUse" x="76" y="74" width="349" height="198">
<path d="M97.8334 74.5469L424.391 122.068L402.646 271.495L76.0886 223.974L97.8334 74.5469Z" fill="white"/>
</mask>
<g mask="url(#mask1_9_42)">
<mask id="mask2_9_42" style="mask-type:luminance" maskUnits="userSpaceOnUse" x="76" y="74" width="349" height="198">
<path d="M97.8334 74.5469L424.391 122.068L402.646 271.495L76.0886 223.974L97.8334 74.5469Z" fill="white"/>
</mask>
<g mask="url(#mask2_9_42)">
<path d="M411.208 192.797C410.083 194.839 407.776 196.156 405.234 195.969C404.516 195.865 350.021 191.609 292.859 209.469C287.276 211.229 282.906 215.37 280.313 220.599C276.396 228.568 266.438 232.63 255.432 236.906C233.609 245.49 222.656 245 215.682 242.422C214.208 241.839 254.932 227.099 253.656 223.88C252.453 220.766 227.339 230.526 215.651 235.714C212.807 236.953 209.573 235.193 209 232.172C208.594 229.911 209.849 227.609 212.073 226.833C222.667 222.865 249.557 213.547 248.526 209.266C247.484 205.073 209.469 221.401 209.469 221.401C209.469 221.401 207.854 214.188 220.146 208.625C240.786 199.323 260.495 188.87 270.094 194.219C275.026 196.953 285.703 199.333 290.745 196.854C356.583 164.182 416.266 174.427 411.844 190.318C411.724 191.13 411.594 192.026 411.208 192.797ZM248.245 177.719C236.536 178.036 225.927 175.208 218.432 170.531C213.464 167.422 207.578 166.198 201.943 167.677C143.828 182.641 99.7917 215.089 99.1771 215.547C97.1146 217.083 94.5312 217.167 92.401 216.031C91.6302 215.646 90.7969 215.063 90.3594 214.266C80.2135 195.615 129.151 167.37 196.193 156.089C202.031 155.104 206.526 150.703 209.38 145.609C214.807 136.109 229.531 128.979 246.948 128.573C269.255 128.052 287.646 138.63 287.969 152.177C288.385 165.74 270.552 177.198 248.245 177.719ZM277.26 148.781C273.266 152.245 269.094 155.031 264.651 157.141C260.198 159.344 255.516 160.589 250.823 161.286C245.87 161.849 240.974 162.057 236.078 161.62C231.193 161.094 226.182 160.177 221.328 158.188C225.099 161.948 230.198 164.161 235.422 165.474C240.667 166.698 246.141 166.943 251.479 166.25C256.906 165.568 262.245 163.589 266.74 160.479C271.115 157.531 274.906 153.583 277.26 148.781Z" fill="#0B161A"/>
</g>
</g>
</g>
<mask id="mask3_9_42" style="mask-type:luminance" maskUnits="userSpaceOnUse" x="160" y="102" width="166" height="120">
<path d="M160 102.667H325.333V221.333H160V102.667Z" fill="white"/>
</mask>
<g mask="url(#mask3_9_42)">
<mask id="mask4_9_42" style="mask-type:luminance" maskUnits="userSpaceOnUse" x="76" y="74" width="349" height="198">
<path d="M97.8334 74.5469L424.391 122.068L402.646 271.495L76.0886 223.974L97.8334 74.5469Z" fill="white"/>
</mask>
<g mask="url(#mask4_9_42)">
<mask id="mask5_9_42" style="mask-type:luminance" maskUnits="userSpaceOnUse" x="76" y="74" width="349" height="198">
<path d="M97.8334 74.5469L424.391 122.068L402.646 271.495L76.0886 223.974L97.8334 74.5469Z" fill="white"/>
</mask>
<g mask="url(#mask5_9_42)">
<path d="M205.104 192.661C204.516 196.708 200.807 199.474 196.76 198.885C192.714 198.297 189.948 194.589 190.536 190.542C191.125 186.49 194.833 183.724 198.88 184.312C202.927 184.901 205.698 188.615 205.104 192.661ZM315.49 143.599C310 142.802 304.953 146.568 304.156 152.052C303.359 157.542 307.125 162.589 312.609 163.385C318.099 164.187 323.146 160.422 323.943 154.932C324.745 149.448 320.885 144.385 315.49 143.599ZM176.766 111.562C173.078 111.026 169.771 113.573 169.245 117.172C168.724 120.771 171.26 124.172 174.854 124.693C178.542 125.229 181.854 122.682 182.38 119.083C182.901 115.484 180.365 112.089 176.766 111.562ZM291.005 102.927C288.307 102.531 285.729 104.453 285.339 107.151C284.943 109.854 286.865 112.427 289.563 112.823C292.26 113.214 294.839 111.292 295.229 108.594C295.625 105.896 293.703 103.318 291.005 102.927ZM165.099 214.484C163.297 214.224 161.557 215.443 161.286 217.328C161.021 219.13 162.24 220.865 164.13 221.141C165.927 221.406 167.667 220.187 167.943 218.297C168.214 216.411 166.984 214.76 165.099 214.484Z" fill="#0B161A"/>
</g>
</g>
</g>
<path d="M69.5284 342.352C66.3044 341.669 63.5336 340.373 61.2159 338.456C58.8929 336.539 57.2367 334.112 56.2367 331.164C55.2367 328.222 55.1325 324.904 55.9242 321.206C56.4346 318.748 57.2419 316.466 58.3409 314.352C59.4346 312.227 60.6638 310.263 62.0284 308.456C63.4034 306.638 64.7263 304.966 66.0075 303.435C67.2992 301.909 68.4034 300.487 69.32 299.164C70.2471 297.847 70.8304 296.617 71.07 295.477C71.2627 294.591 71.2679 293.966 71.0909 293.602C70.9242 293.242 70.5961 293.013 70.1117 292.914C69.6638 292.82 69.0909 292.789 68.3825 292.831C67.6846 292.862 66.9554 292.789 66.195 292.623C64.7367 292.32 63.7679 291.805 63.2992 291.081C62.8252 290.347 62.7002 289.445 62.9242 288.373C63.2002 287.055 64.3669 285.654 66.4242 284.164C68.4763 282.68 71.0752 280.998 74.2159 279.123C76.0752 278.013 77.8721 276.904 79.6117 275.789C81.3461 274.664 82.8721 273.758 84.195 273.06C85.5127 272.352 86.4659 272.06 87.0492 272.185C87.7419 272.341 88.2002 272.685 88.4242 273.227C88.6586 273.758 88.7627 274.383 88.7367 275.102C88.7211 275.81 88.6534 276.477 88.5284 277.102L85.6534 290.706L87.7992 291.164C88.6169 291.331 89.2263 291.727 89.6325 292.352C90.0492 292.977 90.1638 293.716 89.9867 294.56L89.9659 294.706C89.7836 295.539 89.3721 296.164 88.7367 296.581C88.1117 296.987 87.3877 297.102 86.57 296.935L84.4242 296.477L80.1534 316.685C79.4867 319.852 79.1794 322.492 79.2367 324.602C79.2888 326.716 79.5544 328.445 80.0284 329.789C80.4971 331.138 81.0179 332.258 81.5909 333.143C82.1742 334.018 82.6429 334.8 83.0075 335.477C83.3825 336.143 83.4763 336.893 83.2992 337.727C83.0596 338.862 82.4711 339.8 81.5284 340.539C80.5804 341.289 79.445 341.841 78.1117 342.206C76.7784 342.565 75.3513 342.753 73.8409 342.768C72.3409 342.779 70.9034 342.643 69.5284 342.352Z" fill="#E40C1D"/>
<path d="M95.1026 306.946C95.6547 303.352 95.9359 300.008 95.9359 296.925C95.9359 293.831 95.8109 290.935 95.5609 288.238C95.3214 285.545 95.1443 283.04 95.0193 280.717C94.8943 278.399 94.988 276.227 95.3109 274.196C95.5037 272.935 95.9568 272.029 96.6651 271.488C97.3839 270.935 98.212 270.592 99.1443 270.467C100.071 270.342 100.978 270.336 101.853 270.446C102.728 270.56 103.441 270.654 103.998 270.738L116.957 272.758C117.498 272.842 118.207 272.967 119.082 273.133C119.967 273.29 120.837 273.566 121.686 273.967C122.53 274.357 123.212 274.925 123.728 275.675C124.238 276.415 124.399 277.415 124.207 278.675C123.899 280.592 123.373 282.456 122.623 284.258C121.884 286.066 121.071 287.81 120.186 289.488C119.295 291.17 118.488 292.821 117.769 294.446C117.061 296.071 116.582 297.675 116.332 299.258C116.191 300.165 116.108 300.758 116.082 301.05C116.066 301.331 116.191 301.488 116.457 301.529C116.748 301.571 117.358 301.363 118.29 300.904C119.217 300.435 120.462 299.925 122.019 299.383C123.587 298.842 125.457 298.441 127.623 298.175C129.801 297.899 132.254 297.977 134.978 298.404C138.17 298.894 140.634 299.998 142.373 301.717C144.108 303.425 145.248 305.602 145.79 308.238C146.332 310.863 146.353 313.779 145.853 316.988L143.748 330.613C143.384 332.961 143.301 335.05 143.498 336.883C143.691 338.717 144.004 340.378 144.436 341.863C144.863 343.352 145.217 344.732 145.498 346.008C145.79 347.284 145.842 348.534 145.665 349.758C145.467 351.019 145.009 351.925 144.29 352.467C143.582 353.019 142.754 353.363 141.811 353.488C140.879 353.613 139.978 353.613 139.103 353.488C138.228 353.373 137.509 353.279 136.957 353.196L125.311 351.383C124.863 351.31 124.248 351.217 123.457 351.092C122.665 350.977 121.821 350.784 120.936 350.508C120.045 350.243 119.207 349.889 118.415 349.446C117.634 349.014 117.024 348.451 116.582 347.758C116.149 347.06 116.019 346.206 116.186 345.196C116.363 343.977 116.78 342.795 117.436 341.654C118.103 340.519 118.863 339.31 119.728 338.029C120.587 336.753 121.394 335.269 122.144 333.571C122.894 331.878 123.446 329.857 123.811 327.508L124.832 320.863C124.998 319.852 124.967 318.774 124.748 317.633C124.54 316.498 124.071 315.498 123.353 314.633C122.644 313.758 121.592 313.217 120.207 313.008C118.774 312.79 117.551 312.977 116.54 313.571C115.54 314.17 114.754 314.982 114.186 316.008C113.629 317.024 113.269 318.04 113.103 319.05L112.082 325.696C111.717 328.045 111.629 330.133 111.811 331.967C112.004 333.8 112.316 335.461 112.748 336.946C113.191 338.435 113.551 339.816 113.832 341.092C114.108 342.373 114.155 343.623 113.978 344.842C113.811 345.852 113.42 346.623 112.811 347.154C112.196 347.696 111.446 348.055 110.561 348.238C109.67 348.415 108.759 348.498 107.832 348.488C106.899 348.472 106.04 348.404 105.248 348.279C104.467 348.154 103.858 348.055 103.415 347.988L92.2901 346.258C91.7328 346.175 91.0193 346.055 90.1443 345.904C89.2693 345.748 88.4047 345.472 87.5609 345.071C86.712 344.67 86.0297 344.102 85.5193 343.363C85.0037 342.628 84.8422 341.628 85.0401 340.363C85.2484 338.961 85.5401 337.795 85.9151 336.863C86.3005 335.92 86.7537 334.982 87.2693 334.05C87.7953 333.123 88.363 332.029 88.9776 330.779C89.587 329.519 90.2276 327.899 90.8943 325.925C91.5714 323.941 92.2693 321.42 92.9776 318.363C93.6859 315.295 94.3943 311.488 95.1026 306.946Z" fill="#E40C1D"/>
<path d="M150.861 328.265C151.163 324.921 152.027 321.676 153.444 318.535C154.871 315.384 156.871 312.608 159.444 310.202C162.027 307.801 165.173 305.983 168.881 304.744C172.59 303.509 176.887 303.108 181.777 303.535C184.496 303.775 187.079 304.348 189.527 305.265C191.97 306.171 194.111 307.4 195.944 308.952C197.777 310.509 199.173 312.384 200.131 314.577C201.1 316.759 201.465 319.238 201.215 322.015C200.949 325.087 200.246 327.712 199.111 329.89C197.97 332.056 196.548 333.848 194.84 335.265C193.131 336.671 191.282 337.785 189.298 338.619C187.308 339.452 185.324 340.087 183.34 340.515C181.449 340.921 179.808 341.046 178.423 340.89C177.048 340.738 175.949 340.629 175.131 340.556C174.673 340.515 174.324 340.53 174.09 340.598C173.85 340.671 173.72 340.863 173.694 341.181C173.637 341.738 173.902 342.223 174.486 342.64C175.079 343.046 175.803 343.363 176.652 343.598C177.512 343.822 178.288 343.962 178.986 344.015C180.887 344.181 182.512 344.093 183.861 343.744C185.204 343.384 186.392 342.947 187.423 342.431C188.465 341.921 189.465 341.468 190.423 341.077C191.381 340.676 192.407 340.525 193.506 340.619C194.683 340.718 195.683 341.098 196.506 341.765C197.324 342.421 197.97 343.218 198.444 344.16C198.913 345.108 199.236 346.072 199.402 347.056C199.579 348.03 199.637 348.905 199.569 349.681C199.428 351.254 198.527 352.759 196.861 354.202C195.194 355.629 192.72 356.728 189.444 357.494C186.163 358.254 182.017 358.416 177.006 357.973C172.366 357.567 168.34 356.442 164.923 354.598C161.517 352.765 158.72 350.442 156.527 347.619C154.345 344.785 152.782 341.697 151.84 338.348C150.892 335.004 150.569 331.64 150.861 328.265ZM171.756 324.452C170.673 326.619 170.194 328.41 170.319 329.827C170.444 331.244 171.157 332.009 172.465 332.119C173.798 332.244 175.204 331.671 176.694 330.39C178.178 329.113 179.454 327.39 180.527 325.223C181.652 323.004 182.137 321.181 181.986 319.765C181.845 318.348 181.111 317.587 179.777 317.473C178.47 317.348 177.09 317.926 175.631 319.202C174.173 320.483 172.881 322.233 171.756 324.452Z" fill="#E40C1D"/>
<path d="M221.974 355.493C221.974 354.076 222.088 352.878 222.328 351.889C222.562 350.904 222.875 349.92 223.265 348.93C223.651 347.93 224.062 346.764 224.494 345.43C224.937 344.086 225.375 342.383 225.807 340.326C226.234 338.274 226.619 335.68 226.953 332.555C227.296 329.42 227.541 325.55 227.682 320.951C227.682 317.316 227.442 313.967 226.974 310.909C226.5 307.842 225.937 305.008 225.286 302.409C224.63 299.816 224.062 297.378 223.578 295.097C223.104 292.805 222.869 290.618 222.869 288.534C222.869 287.258 223.171 286.295 223.786 285.639C224.411 284.988 225.171 284.529 226.078 284.264C226.979 284.003 227.875 283.863 228.765 283.847C229.651 283.821 230.375 283.805 230.932 283.805L244.578 283.826C245.145 283.826 245.869 283.842 246.744 283.868C247.63 283.883 248.526 284.024 249.432 284.284C250.333 284.55 251.088 285.008 251.703 285.659C252.328 286.316 252.64 287.279 252.64 288.555C252.64 290.545 252.411 292.482 251.953 294.368C251.494 296.258 250.953 298.107 250.328 299.909C249.713 301.717 249.171 303.467 248.703 305.159C248.229 306.857 247.994 308.503 247.994 310.097C247.994 311.014 248 311.618 248.015 311.909C248.041 312.191 248.192 312.326 248.474 312.326C248.765 312.326 249.213 312.029 249.828 311.43C250.453 310.821 251.276 310.128 252.307 309.347C253.333 308.571 254.604 307.883 256.119 307.284C257.645 306.691 259.432 306.389 261.474 306.389C266.541 306.389 270.541 308.675 273.474 313.243C276.401 317.816 277.869 324.649 277.869 333.743C277.854 339.607 277.015 344.571 275.349 348.639C273.692 352.696 271.38 355.779 268.411 357.889C265.437 359.988 261.974 361.034 258.015 361.034C256.067 361.034 254.421 360.93 253.078 360.722C251.729 360.514 250.505 360.253 249.411 359.951C248.312 359.649 247.171 359.389 245.994 359.18C244.812 358.972 243.39 358.868 241.724 358.868C240.192 358.868 238.791 358.982 237.515 359.201C236.25 359.425 235.02 359.654 233.828 359.889C232.645 360.113 231.39 360.222 230.057 360.222C229.484 360.222 228.755 360.217 227.869 360.201C226.994 360.175 226.104 360.029 225.203 359.764C224.296 359.503 223.536 359.045 222.911 358.389C222.286 357.738 221.974 356.774 221.974 355.493ZM247.994 333.826C247.994 337.784 248.421 340.988 249.286 343.43C250.145 345.863 251.286 347.076 252.703 347.076C254.119 347.076 255.265 345.863 256.14 343.43C257.015 340.988 257.453 337.784 257.453 333.826C257.453 329.826 257.015 326.607 256.14 324.159C255.276 321.717 254.14 320.493 252.724 320.493C251.307 320.493 250.161 321.717 249.286 324.159C248.421 326.607 247.994 329.826 247.994 333.826Z" fill="#E40C1D"/>
<path d="M284.192 333.507C284.067 331.163 283.78 329.189 283.337 327.59C282.905 325.981 282.405 324.606 281.837 323.465C281.264 322.314 280.697 321.298 280.129 320.423C279.577 319.538 279.103 318.653 278.712 317.778C278.311 316.892 278.077 315.877 278.004 314.736C277.952 313.502 278.4 312.517 279.358 311.778C280.317 311.028 281.535 310.397 283.025 309.882C284.509 309.356 286.046 308.835 287.629 308.319C288.254 308.127 289.046 307.871 290.004 307.548C290.962 307.231 291.931 306.913 292.921 306.59C293.921 306.272 294.806 306.007 295.587 305.798C296.379 305.59 296.952 305.475 297.317 305.444C298.202 305.403 299.093 305.684 299.983 306.278C300.869 306.861 301.634 307.934 302.275 309.486C302.926 311.028 303.327 313.215 303.483 316.048C303.577 317.923 303.681 319.882 303.796 321.923C303.921 323.955 304.025 325.892 304.108 327.736C304.202 329.569 304.285 331.147 304.358 332.465C304.468 334.715 304.817 336.892 305.4 338.986C305.994 341.085 306.671 343.059 307.421 344.903C308.171 346.736 308.822 348.418 309.379 349.944C309.931 351.475 310.238 352.819 310.296 353.986C310.363 355.267 310.15 356.246 309.65 356.923C309.16 357.606 308.525 358.1 307.733 358.403C306.952 358.694 306.171 358.877 305.379 358.944C304.587 359.002 303.91 359.043 303.358 359.069L287.962 359.861C287.405 359.892 286.733 359.918 285.942 359.944C285.15 359.96 284.343 359.856 283.525 359.632C282.718 359.413 282.03 358.986 281.462 358.361C280.905 357.736 280.593 356.788 280.525 355.507C280.452 354.09 280.619 352.606 281.025 351.048C281.426 349.496 281.9 347.814 282.442 346.007C282.983 344.205 283.442 342.272 283.817 340.215C284.192 338.163 284.317 335.923 284.192 333.507ZM292.587 302.528C291.988 302.559 291.119 302.371 289.983 301.965C288.843 301.564 287.629 300.986 286.337 300.236C285.046 299.486 283.796 298.606 282.587 297.59C281.389 296.564 280.4 295.423 279.608 294.173C278.817 292.913 278.379 291.569 278.296 290.153C278.228 288.767 278.478 287.522 279.046 286.423C279.603 285.33 280.358 284.455 281.317 283.798C282.285 283.147 283.348 282.793 284.504 282.736C286.129 282.653 287.535 283.043 288.733 283.903C289.942 284.767 290.952 285.653 291.775 286.569C292.535 285.585 293.468 284.6 294.567 283.611C295.676 282.627 297.046 282.09 298.671 282.007C299.822 281.955 300.91 282.205 301.942 282.757C302.983 283.298 303.827 284.09 304.483 285.132C305.15 286.163 305.514 287.371 305.587 288.757C305.671 290.173 305.379 291.548 304.712 292.882C304.056 294.205 303.181 295.439 302.087 296.59C301.004 297.731 299.843 298.736 298.608 299.611C297.384 300.486 296.233 301.184 295.15 301.694C294.077 302.21 293.223 302.486 292.587 302.528Z" fill="#E40C1D"/>
<path d="M330.957 357.426C327.676 357.707 324.645 357.269 321.853 356.113C319.072 354.962 316.78 353.124 314.978 350.592C313.171 348.066 312.103 344.92 311.77 341.155C311.562 338.655 311.681 336.233 312.124 333.884C312.556 331.54 313.15 329.301 313.916 327.176C314.692 325.04 315.468 323.051 316.249 321.217C317.041 319.374 317.676 317.691 318.166 316.176C318.666 314.65 318.864 313.301 318.77 312.134C318.687 311.233 318.504 310.634 318.228 310.342C317.963 310.04 317.582 309.905 317.082 309.946C316.634 309.988 316.088 310.134 315.437 310.384C314.78 310.624 314.067 310.769 313.291 310.821C311.822 310.962 310.749 310.754 310.082 310.196C309.405 309.629 309.015 308.795 308.916 307.696C308.791 306.363 309.499 304.691 311.041 302.676C312.572 300.65 314.551 298.28 316.999 295.571C318.468 293.962 319.874 292.374 321.207 290.801C322.541 289.233 323.733 287.92 324.791 286.863C325.858 285.795 326.692 285.238 327.291 285.196C327.999 285.129 328.541 285.321 328.916 285.78C329.291 286.228 329.567 286.795 329.749 287.488C329.942 288.17 330.067 288.832 330.124 289.467L331.332 303.321L333.499 303.134C334.343 303.066 335.051 303.269 335.624 303.738C336.192 304.212 336.52 304.879 336.603 305.738V305.884C336.687 306.733 336.483 307.446 335.999 308.03C335.525 308.613 334.864 308.941 334.02 309.009L331.853 309.196L333.645 329.759C333.921 332.999 334.395 335.613 335.062 337.613C335.728 339.613 336.483 341.191 337.332 342.342C338.176 343.499 339.004 344.415 339.812 345.092C340.629 345.775 341.312 346.379 341.853 346.905C342.395 347.436 342.697 348.124 342.77 348.967C342.879 350.134 342.593 351.212 341.916 352.196C341.233 353.186 340.301 354.045 339.124 354.78C337.942 355.519 336.629 356.113 335.187 356.571C333.754 357.019 332.343 357.301 330.957 357.426Z" fill="#E40C1D"/>
<path d="M331.056 357.242C327.774 357.524 324.743 357.086 321.952 355.93C319.17 354.779 316.879 352.94 315.077 350.409C313.269 347.883 312.202 344.737 311.868 340.972C311.66 338.472 311.78 336.05 312.222 333.701C312.655 331.357 313.248 329.117 314.014 326.992C314.79 324.857 315.566 322.867 316.347 321.034C317.139 319.19 317.774 317.508 318.264 315.992C318.764 314.466 318.962 313.117 318.868 311.951C318.785 311.05 318.603 310.451 318.327 310.159C318.061 309.857 317.681 309.722 317.181 309.763C316.733 309.805 316.186 309.951 315.535 310.201C314.879 310.44 314.165 310.586 313.389 310.638C311.92 310.779 310.847 310.57 310.181 310.013C309.504 309.445 309.113 308.612 309.014 307.513C308.889 306.18 309.597 304.508 311.139 302.492C312.67 300.466 314.649 298.097 317.097 295.388C318.566 293.779 319.972 292.19 321.306 290.617C322.639 289.05 323.832 287.737 324.889 286.68C325.957 285.612 326.79 285.055 327.389 285.013C328.097 284.945 328.639 285.138 329.014 285.597C329.389 286.044 329.665 286.612 329.847 287.305C330.04 287.987 330.165 288.649 330.222 289.284L331.431 303.138L333.597 302.951C334.441 302.883 335.149 303.086 335.722 303.555C336.29 304.029 336.618 304.695 336.702 305.555V305.701C336.785 306.55 336.582 307.263 336.097 307.847C335.623 308.43 334.962 308.758 334.118 308.826L331.952 309.013L333.743 329.576C334.019 332.815 334.493 335.43 335.16 337.43C335.827 339.43 336.582 341.008 337.431 342.159C338.274 343.315 339.103 344.232 339.91 344.909C340.728 345.591 341.41 346.195 341.952 346.722C342.493 347.253 342.795 347.94 342.868 348.784C342.978 349.951 342.691 351.029 342.014 352.013C341.332 353.003 340.399 353.862 339.222 354.597C338.04 355.336 336.728 355.93 335.285 356.388C333.853 356.836 332.441 357.117 331.056 357.242Z" fill="#E40C1D"/>
<path d="M342.901 329.141C342.443 325.808 342.568 322.454 343.276 319.079C343.974 315.693 345.302 312.547 347.276 309.641C349.261 306.724 351.927 304.256 355.276 302.224C358.62 300.198 362.734 298.849 367.609 298.183C370.302 297.823 372.943 297.818 375.526 298.162C378.109 298.495 380.464 299.224 382.589 300.349C384.724 301.464 386.505 302.974 387.922 304.891C389.349 306.797 390.255 309.131 390.63 311.891C391.047 314.948 390.943 317.662 390.318 320.037C389.693 322.412 388.698 324.474 387.339 326.224C385.99 327.974 384.432 329.485 382.672 330.745C380.922 332.011 379.13 333.068 377.297 333.912C375.547 334.719 373.974 335.204 372.589 335.37C371.214 335.526 370.115 335.651 369.297 335.745C368.849 335.818 368.516 335.912 368.297 336.037C368.073 336.151 367.984 336.365 368.026 336.683C368.109 337.24 368.474 337.651 369.13 337.912C369.797 338.178 370.568 338.329 371.443 338.37C372.328 338.412 373.12 338.391 373.818 338.308C375.703 338.047 377.266 337.589 378.505 336.933C379.74 336.282 380.802 335.594 381.693 334.87C382.594 334.136 383.469 333.469 384.318 332.87C385.177 332.276 386.151 331.907 387.234 331.766C388.412 331.599 389.469 331.745 390.401 332.204C391.344 332.662 392.151 333.303 392.818 334.12C393.495 334.943 394.026 335.808 394.401 336.724C394.787 337.641 395.037 338.485 395.151 339.245C395.359 340.818 394.807 342.49 393.505 344.266C392.198 346.032 390.026 347.652 386.984 349.12C383.953 350.594 379.953 351.662 374.984 352.329C370.359 352.969 366.177 352.766 362.443 351.724C358.719 350.683 355.474 349.032 352.714 346.766C349.964 344.49 347.755 341.823 346.089 338.766C344.422 335.698 343.359 332.49 342.901 329.141ZM362.422 320.787C361.849 323.162 361.787 325.026 362.234 326.37C362.677 327.719 363.547 328.308 364.839 328.141C366.172 327.948 367.412 327.073 368.568 325.516C369.719 323.948 370.578 321.974 371.151 319.599C371.761 317.198 371.839 315.323 371.38 313.974C370.932 312.631 370.047 312.053 368.714 312.245C367.422 312.412 366.198 313.282 365.047 314.849C363.906 316.422 363.031 318.401 362.422 320.787Z" fill="#E40C1D"/>
<path d="M398.082 344.663C397.957 344.038 398.118 342.965 398.561 341.434C399.019 339.892 399.649 338.059 400.457 335.934C401.274 333.809 402.175 331.538 403.165 329.121C404.149 326.705 405.134 324.304 406.123 321.913C407.123 319.528 408.024 317.298 408.832 315.225C409.649 313.158 410.295 311.403 410.769 309.955C411.238 308.496 411.436 307.538 411.352 307.08C411.196 306.319 410.498 306.059 409.248 306.309C407.259 306.699 405.582 307.22 404.207 307.871C402.842 308.528 401.665 309.215 400.665 309.934C399.675 310.658 398.753 311.288 397.894 311.83C397.035 312.371 396.134 312.741 395.186 312.934C394.326 313.1 393.681 312.929 393.248 312.413C392.821 311.887 392.477 310.975 392.227 309.684C391.91 308.132 391.66 306.83 391.477 305.788C391.285 304.746 391.092 303.684 390.894 302.6C390.701 301.517 390.446 300.179 390.123 298.58C389.946 297.694 390.082 296.845 390.54 296.038C390.988 295.22 391.743 294.705 392.811 294.496C393.936 294.278 395.05 294.116 396.144 294.017C397.243 293.923 398.488 293.809 399.894 293.684C401.295 293.548 402.962 293.283 404.894 292.892L433.415 287.225C434.384 287.033 435.269 286.908 436.061 286.85C436.863 286.783 437.55 286.913 438.123 287.246C438.691 287.569 439.082 288.267 439.29 289.35C439.467 290.267 439.342 291.559 438.915 293.225C438.483 294.892 437.832 296.819 436.957 298.996C436.082 301.163 435.113 303.449 434.061 305.85C433.003 308.241 431.936 310.616 430.852 312.975C429.769 315.34 428.78 317.554 427.894 319.621C427.003 321.694 426.321 323.475 425.852 324.975C425.378 326.475 425.207 327.554 425.332 328.205C425.384 328.528 425.53 328.783 425.769 328.975C426.003 329.158 426.316 329.205 426.707 329.121C428.608 328.746 430.212 328.132 431.519 327.267C432.821 326.392 433.988 325.47 435.019 324.496C436.061 323.512 437.066 322.616 438.04 321.809C439.024 321.007 440.134 320.475 441.373 320.225C442.384 320.033 443.212 320.184 443.852 320.684C444.488 321.184 445.003 321.903 445.394 322.83C445.78 323.762 446.087 324.804 446.311 325.955C446.545 327.095 446.769 328.199 446.977 329.267C447.42 331.533 447.623 333.35 447.582 334.725C447.54 336.1 447.269 337.163 446.769 337.913C446.28 338.663 445.54 339.236 444.54 339.621C443.55 340.012 442.332 340.35 440.873 340.642C439.457 340.923 437.748 341.194 435.748 341.455C433.759 341.72 431.712 341.996 429.602 342.288C427.488 342.58 425.524 342.903 423.707 343.246L402.102 347.538C401.071 347.746 400.196 347.595 399.477 347.08C398.769 346.554 398.3 345.746 398.082 344.663Z" fill="#E40C1D"/>
</svg>
